# xmcd
#
# Track frame offsets: 
#        150
#        9955
#        21102
#        32437
#        41177
#        49990
#        63707
#        77042
#        92897
#        107327
#        115842
#
# Disc length: 1711 seconds
#
# Revision: 3
# Processed by: cddbd v1.5.2PL0 Copyright (c) Steve Scherf et al.
# Submitted via: ExactAudioCopyFreeDBPlugin 1.0
#
DISCID=8406ad0b
DTITLE=Byrds - Younger Than Yesterday
DYEAR=1967
DGENRE=Psychedelic Rock
TTITLE0=So You Want to be a Rock 'n' Roll Star
TTITLE1=Have You Seen Her Face
TTITLE2=C.T.A. 102
TTITLE3=Renaissance Fair
TTITLE4=Time Between
TTITLE5=Everybody's Been Burned
TTITLE6=Thoughts and Words
TTITLE7=Mind Gardens
TTITLE8=My Back Pages
TTITLE9=The Girl With No Name
TTITLE10=Why
EXTD=YEAR: 1967
EXTT0=
EXTT1=
EXTT2=
EXTT3=
EXTT4=
EXTT5=
EXTT6=
EXTT7=
EXTT8=
EXTT9=
EXTT10=
PLAYORDER=
